# xmcd
#
# Track frame offsets: 
#        150
#        15283
#        31027
#        46536
#        64246
#        78834
#        96386
#        112477
#        129230
#        145829
#
# Disc length: 2174 seconds
#
# Revision: 0
# Processed by: cddbd v1.5.2PL0 Copyright (c) Steve Scherf et al.
# Submitted via: ExactAudioCopyFreeDBPlugin 1.0
#
DISCID=77087c0a
DTITLE=Nick Smith - Just a Preview
DYEAR=1900
DGENRE=
TTITLE0=Drivin' Them Crazy
TTITLE1=That Truck
TTITLE2=She's The Party
TTITLE3=Hillbilly Goldmine
TTITLE4=Get Right
TTITLE5=Can't Lie to You
TTITLE6=Don't Give a Damn
TTITLE7=Just a Preview
TTITLE8=If Whiskey Was a Man
TTITLE9=Tree Cuttin' Man
EXTD=
EXTT0=
EXTT1=
EXTT2=
EXTT3=
EXTT4=
EXTT5=
EXTT6=
EXTT7=
EXTT8=
EXTT9=
PLAYORDER=
